<svg viewBox="0 0 1024 1024" xmlns="http://www.w3.org/2000/svg">
    <path d="M206.937,415.862c6.57,17.151,14.67,33.69,23.029,50.023 c19.863,38.812,40.318,76.521,67.744,110.633c27.716,34.472,60.438,67.878,98.983,90.177c10.722,6.202,21.99,11.436,33.729,15.412 c45.294,15.342,94.972,13.881,110.314,3.652s-2.922-77.439,10.959-85.476c13.879-8.037,38.719,9.498,56.982,25.569 c18.264,16.072,32.145,29.952,42.373,40.911c6.404,6.862,10.914,15.054,19.264,19.947c13.813,8.096,32.217,7.198,47.623,7.241 c8.59,0.025,17.18,0.053,25.77-0.054c5.805-0.072,11.613,0.115,17.414-0.165c9.533-0.462,22-4.227,21.283-16.151 c-0.168-2.819-0.793-6.192-1.914-8.794c-2.408-5.593-5.801-11.399-9.447-16.271c-18.994-25.386-31.596-38.354-41.092-48.582 c-9.498-10.228-48.582-47.12-51.139-54.427c-2.559-7.305-3.379-10.547,3.879-20.41c7.262-9.862,23.15-34.747,35.57-52.646 c7.789-11.227,14.865-22.963,21.855-34.695c8.242-13.833,15.994-28.001,22.602-42.692c2.955-6.568,5.635-12.554,3.807-19.914 c-1.227-4.932-4-9.264-9.166-10.481c-2.818-0.664-5.896-0.731-8.779-0.731c-10.775,0-38.904,0-38.904,0 c-5.084,0-10.168-0.074-15.254-0.064c-5.213,0.009-10.467-0.032-15.666,0.414c-7.395,0.633-11.928,6.336-15.646,12.086 c-4.551,7.035-8.693,14.355-13.107,21.48c-3.018,4.868-5.973,9.775-8.873,14.714c-4.531,7.713-9.203,15.346-13.873,22.977 c-1.938,3.167-3.883,6.328-5.793,9.512c-5.479,9.132-52.965,71.595-62.461,74.151c-9.498,2.558-12.785,1.827-12.785-17.533 c0-19.358,0-129.308,0-129.308s-0.73-8.478-8.766-8.478c-8.037,0-45.311,0-45.311,0h-76.877c0,0-18.082,0.075-11.688,16.331 c6.393,16.255,25.296,21.187,25.296,48.309s0,106.296,0,106.296s-3.196,23.834-23.834,4.109 c-16.263-15.544-29.663-33.922-41.503-52.977c-12.31-19.81-22.228-40.391-31.063-61.953c-2.526-6.167-5.027-12.344-7.623-18.482 c-2.709-6.408-5.393-12.826-7.99-19.279c-3.018-7.496-6.244-17.293-14.377-20.743c-4.089-1.735-8.611-1.65-12.971-1.648 c-16.165,0.004-32.328,0.049-48.493,0.019c-4.743-0.009-9.486-0.013-14.229-0.002c-11.198,0.026-25.126-0.304-27.783,13.686 c-1.531,8.058,1.513,16.66,4.06,24.207C204.221,409.191,205.645,412.489,206.937,415.862z"/>
</svg>